<svg version="1.1" viewBox="0 0 2000 2000" width="1280" height="1280" xmlns="http://www.w3.org/2000/svg">
<path transform="translate(1e3 334)" d="m0 0 5 1 22 12 48 28 130 75 24 14 104 60 48 28 8 6 1 4v208l-1 69-9 6-27 15-42 24-26 15-25 14-17 10-23 13-24 14-49 28-26 15-24 14-52 30-24 14-27 16-2 7-1 374-6 5-24 14-25 14-21 13-6 7-20 12-28 16-48 28-52 30-48 28-52 30-21 12-26 15-3-1 2-94 5-5 46-26 18-10 26-15 25-14 23-13 18-10 21-12 18-10 26-15 25-14 21-12 23-13 1-1 1-20v-245l2-4 1-491-25 13-15 9-24 14-8 5h-2l-1 660-5 5-84 48-24 14-27 15-24 14-28 16-20 11-9 1-5-5-1-5v-898l2-6 6-5 24-14 26-15 21-12 24-14 28-16 27-16 25-14 17-10 26-15 24-14 52-30 24-14 23-13 22-13 15-8zm2 90-20 11-17 10-23 13-24 14-28 16-43 25-28 16-26 15-24 14-52 30-18 11-5 4-1 12v705l1 7 4 3 7 1 14-7 20-12 13-8 5-5 1-2 1-658 4-2 43-25 45-26 24-14 23-13 27-16 25-14 15-9 28-16 9-3 14 7 24 14 26 15 24 14 56 32 17 10 26 15 24 14 26 15 16 9 2 1h12l16-8 22-12 5-5 1-3v-14l-6-7-23-13-24-14-14-8-17-10-26-15-28-16-24-14-21-12-26-15-24-14-25-14-24-14-21-12-6-3zm-3 168-8 4-1 5v205l5-1 58-34 19-11 15-9 26-15 48-28 9-6 1-2v-8l-5-6-16-9-22-13-52-30-49-28-23-13zm309 126-16 8-28 16-24 14-28 16-24 14-52 30-28 16-26 15-24 14-21 12-24 14-13 8-9 7v72l6-2 22-12 22-13 24-14 21-12 29-17 21-12 24-14 45-26 24-14 52-30 23-13 5-4v-73z" fill="white"/>
<path transform="translate(1e3 334)" d="m0 0 5 1 22 12 48 28 130 75 24 14 104 60 6 4-2 4 2 4 7 5 4 2 6 4 4 1 3 5-1 4 8 5 3 3v2l5 15v7h-1v11l-1 3v5l-4 5v10l-3 6v7l-5 4-4-1 2-5h-4l1 3-3 3-10 4-6 5-2 4-4-1 1-5-5 1-3 5h-2v2h-2v2l-8 4-10 2v2l-7 4-4-3v-2h-5l-1-2 3-1 2 1v-4h2l2-4 4-1 1-4 3-1-1-4v-3l5-5h2l2-4 9-5 4-9 3-12v-9l-5-1-9-9-10-6-10-5-8-5-9-2h-6l-12-5-6-4-12-7-9-5-9-4-15-10-10-4-15-8v-2l-5-2-7-3-4-5-9-4-11-7-3-1-5-5-12-5-12-6v-2l-9-3-5-4-14-7-14-10-12-5-3-2v-2l-3 1-3-1-1-3-9-5-4-3v-2l-6-1-11-6v-2l-5-2-4-2-3-4-3-1h-10l-8 6-6 3-2 3-7 3-6 4-1 1h-5v2l-7 3-6 1-1 3-3 1v-4l2-3-11 3-7 5-11 4h-2v2l-18 8-8 4-15 5-6 4-7 2-5 2-13 3-9 4v-2l17-9 11-8 15-8 6-4 7-7-6-2 2-1 2-4 3-3 1-5 6-5 12-3-5-10 1-7v-2l4-4-3-2 6-5 7-3 2-4-5 1-2 4-6 1-2 1-2-1v2l-7 2-3-1-2 4-6 1v3l-8 2-7 6-6 1-2-2 15-9 26-15 21-12 26-15 29-17 15-8z" fill="white"/>
<path transform="translate(1e3 334)" d="m0 0 5 1 22 12 48 28 15 9 4 7h-5l-1-3-6-1-4-2-2-2-16-8-13-8-12-6-5-1-10-6v-2l-6-1-5-4-4-4-10-3v-4z" fill="white"/>
<path transform="translate(1256,480)" d="m0 0 4 1 25 14 24 14 22 13 3 5-1 3-4-1-14-7-8-7-10-4-12-7-6-3-5-3-11-8-4-3v-2l-4-2z" fill="white"/>
<path transform="translate(1282,641)" d="m0 0h2l1 6-4 5h-2v2l5-1-2 3h-14l-5-1v2h-2l-1-2-5-2v-2l-4-2-1-2 1-4 6 2 2 1h12z" fill="white"/>
<path transform="translate(1113,400)" d="m0 0 11 2 19 11v3l2 1-2 1-1 2-15-8v-2l-6-1-10-5v-3z" fill="white"/>
<path transform="translate(1149,417)" d="m0 0 15 8 8 5-1 4h-5l-16-8v-2h-2l-4-6z" fill="white"/>
<path transform="translate(988,507)" d="m0 0h2l-2 4h-2v4l-5 2v2l-4 2h-7l-1 2-13 6h-3v-2l28-16z" fill="white"/>
<path transform="translate(950,529)" d="m0 0 2 1-4 5-6 3-7 4h-3l-1 2-6 2-4 3h-2l1-3 23-13z" fill="white"/>
<path transform="translate(1189,442)" d="m0 0 6 1 12 7v3l-6-1-10-6z" fill="white"/>
<path transform="translate(861,414)" d="m0 0 5 1-3 3-5 4-7 1-4 4v-5z" fill="white"/>
<path transform="translate(970,517)" d="m0 0 2 1-3 5-13 6h-3v-2z" fill="white"/>
<path transform="translate(1287,654)" d="m0 0h5l-5 4-3 2h-5l5-5z" fill="white"/>
<path transform="translate(1342,529)" d="m0 0 5 2 5 3-1 3h-4v-3l-4-1z" fill="white"/>
<path transform="translate(842,425)" d="m0 0 4 1-1 4-4 1-4-1v-2z" fill="white"/>
<path transform="translate(1389,577)" d="m0 0h1l1 14-3 1v-8-3z" fill="white"/>
<path transform="translate(905,402)" d="m0 0 2 1-4 2v3l-6 1 3-5z" fill="white"/>
</svg>